<svg width="42" height="32" viewBox="0 0 42 32" fill="none" xmlns="http://www.w3.org/2000/svg">
<path d="M15.9996 4C13.7824 4 11.656 4.94824 10.0882 6.63611C8.52043 8.32398 7.63965 10.6132 7.63965 13.0002C7.63971 14.1822 7.856 15.3525 8.27618 16.4444C8.69636 17.5364 9.31221 18.5285 10.0885 19.3642C10.8649 20.1999 11.7865 20.8628 12.8008 21.3151C13.8151 21.7673 14.9022 22.0001 16.0001 22C17.0979 21.9999 18.185 21.7671 19.1993 21.3147C20.2135 20.8624 21.1351 20.1994 21.9114 19.3636C22.6876 18.5278 23.3034 17.5356 23.7234 16.4436C24.1435 15.3516 24.3597 14.1812 24.3596 12.9993C24.3596 8.02948 20.6159 4 15.9996 4ZM15.8682 18.2494H15.8237C15.1427 18.2279 14.662 17.6869 14.6821 16.9641C14.7012 16.2534 15.1933 15.7369 15.8516 15.7369L15.8917 15.7387C16.5918 15.7603 17.0673 16.2956 17.0473 17.0391C17.0272 17.7516 16.5439 18.2494 15.8682 18.2494ZM18.7341 12.1265C18.5738 12.3702 18.222 12.6759 17.7779 13.048L17.2885 13.4109C17.0203 13.6359 16.8583 13.8487 16.7982 14.0559C16.7494 14.219 16.7268 14.2631 16.7224 14.5959V14.6803H14.8545L14.8597 14.5096C14.8832 13.8121 14.8989 13.3996 15.168 13.0593C15.5904 12.5268 16.5221 11.8799 16.5613 11.8527C16.6892 11.7522 16.8007 11.6296 16.8914 11.4899C17.0873 11.1983 17.1735 10.9696 17.1735 10.7464C17.1735 10.4333 17.0882 10.1436 16.9184 9.88765C16.7547 9.63827 16.4438 9.51452 15.9944 9.51452C15.5486 9.51452 15.2429 9.6664 15.0609 9.97953C14.8728 10.2992 14.7779 10.6358 14.7779 10.9799V11.0661H12.8525L12.8559 10.9761C12.9056 9.70765 13.3271 8.79356 14.1056 8.26011C14.5959 7.92166 15.2063 7.7501 15.9178 7.7501C16.8478 7.7501 17.6351 7.99385 18.2534 8.47387C18.8812 8.96044 19.1991 9.68984 19.1991 10.6405C19.1982 11.1721 19.0423 11.6718 18.7341 12.1265Z" fill="#E20613"/>
</svg>
