<svg width="31" height="30" viewBox="0 0 31 30" fill="none" xmlns="http://www.w3.org/2000/svg">
<path d="M26.7656 10.3816C26.753 9.43484 26.5758 8.49753 26.2419 7.61156C25.9523 6.86425 25.51 6.18556 24.9433 5.61885C24.3766 5.05214 23.6979 4.60988 22.9506 4.32031C22.076 3.99201 21.1521 3.81449 20.2181 3.79531C19.0156 3.74156 18.6344 3.72656 15.5819 3.72656C12.5294 3.72656 12.1381 3.72656 10.9444 3.79531C10.0108 3.81463 9.08731 3.99215 8.21312 4.32031C7.4657 4.60967 6.7869 5.05187 6.22017 5.6186C5.65343 6.18534 5.21124 6.86414 4.92187 7.61156C4.59291 8.48548 4.41578 9.4092 4.39812 10.3428C4.34437 11.5466 4.32812 11.9278 4.32812 14.9803C4.32812 18.0328 4.32812 18.4228 4.39812 19.6178C4.41687 20.5528 4.59312 21.4753 4.92187 22.3516C5.21172 23.0988 5.65425 23.7773 6.22117 24.3438C6.78809 24.9103 7.46695 25.3523 8.21438 25.6416C9.08617 25.9831 10.0098 26.1733 10.9456 26.2041C12.1494 26.2578 12.5306 26.2741 15.5831 26.2741C18.6356 26.2741 19.0269 26.2741 20.2206 26.2041C21.1546 26.1857 22.0786 26.0086 22.9531 25.6803C23.7002 25.3904 24.3788 24.948 24.9454 24.3814C25.5121 23.8147 25.9545 23.1362 26.2444 22.3891C26.5731 21.5141 26.7494 20.5916 26.7681 19.6553C26.8219 18.4528 26.8381 18.0716 26.8381 15.0178C26.8356 11.9653 26.8356 11.5778 26.7656 10.3816ZM15.5744 20.7528C12.3819 20.7528 9.79562 18.1666 9.79562 14.9741C9.79562 11.7816 12.3819 9.19531 15.5744 9.19531C17.107 9.19531 18.5768 9.80414 19.6606 10.8879C20.7443 11.9716 21.3531 13.4414 21.3531 14.9741C21.3531 16.5067 20.7443 17.9765 19.6606 19.0603C18.5768 20.144 17.107 20.7528 15.5744 20.7528ZM21.5831 10.3291C21.4061 10.3292 21.2308 10.2945 21.0673 10.2268C20.9037 10.1592 20.7551 10.0599 20.6299 9.93476C20.5048 9.8096 20.4055 9.66098 20.3379 9.49742C20.2702 9.33386 20.2355 9.15857 20.2356 8.98156C20.2356 8.80469 20.2705 8.62955 20.3382 8.46614C20.4058 8.30273 20.505 8.15425 20.6301 8.02918C20.7552 7.90411 20.9037 7.8049 21.0671 7.73721C21.2305 7.66953 21.4056 7.63469 21.5825 7.63469C21.7594 7.63469 21.9345 7.66953 22.0979 7.73721C22.2613 7.8049 22.4098 7.90411 22.5349 8.02918C22.66 8.15425 22.7592 8.30273 22.8269 8.46614C22.8945 8.62955 22.9294 8.80469 22.9294 8.98156C22.9294 9.72656 22.3269 10.3291 21.5831 10.3291Z" fill="black"/>
<path d="M15.5741 18.7272C17.6472 18.7272 19.3278 17.0466 19.3278 14.9735C19.3278 12.9003 17.6472 11.2197 15.5741 11.2197C13.5009 11.2197 11.8203 12.9003 11.8203 14.9735C11.8203 17.0466 13.5009 18.7272 15.5741 18.7272Z" fill="black"/>
</svg>
